<?xml version="1.0" encoding="UTF-8" standalone="no"?>
<!DOCTYPE svg PUBLIC "-//W3C//DTD SVG 1.1//EN"
 "http://www.w3.org/Graphics/SVG/1.1/DTD/svg11.dtd">
<!-- Generated by graphviz version 14.0.5 (20251129.0259)
 -->
<!-- Title: FSM Pages: 1 -->
<svg width="6675pt" height="389pt"
 viewBox="0.00 0.00 6675.00 389.00" xmlns="http://www.w3.org/2000/svg" xmlns:xlink="http://www.w3.org/1999/xlink">
<g id="graph0" class="graph" transform="scale(1 1) rotate(0) translate(4 384.89)">
<title>FSM</title>
<polygon fill="white" stroke="none" points="-4,4 -4,-384.89 6671.11,-384.89 6671.11,4 -4,4"/>
<!-- start -->
<g id="node1" class="node">
<title>start</title>
<ellipse fill="black" stroke="black" cx="1.8" cy="-194.96" rx="1.8" ry="1.8"/>
</g>
<!-- q0 -->
<g id="node2" class="node">
<title>q0</title>
<ellipse fill="none" stroke="black" cx="67.6" cy="-194.96" rx="27" ry="18"/>
<text xml:space="preserve" text-anchor="middle" x="67.6" y="-189.91" font-family="Times New Roman,serif" font-size="14.00">q0</text>
</g>
<!-- start&#45;&gt;q0 -->
<g id="edge1" class="edge">
<title>start&#45;&gt;q0</title>
<path fill="none" stroke="black" d="M3.91,-194.96C7.21,-194.96 17.46,-194.96 28.73,-194.96"/>
<polygon fill="black" stroke="black" points="28.62,-198.46 38.62,-194.96 28.62,-191.46 28.62,-198.46"/>
</g>
<!-- q4 -->
<g id="node3" class="node">
<title>q4</title>
<ellipse fill="none" stroke="black" cx="3837.85" cy="-309.96" rx="20.13" ry="20.13"/>
<ellipse fill="none" stroke="black" cx="3837.85" cy="-309.96" rx="24.13" ry="24.13"/>
<text xml:space="preserve" text-anchor="middle" x="3837.85" y="-304.91" font-family="Times New Roman,serif" font-size="14.00">q4</text>
</g>
<!-- q0&#45;&gt;q4 -->
<g id="edge9" class="edge">
<title>q0&#45;&gt;q4</title>
<path fill="none" stroke="black" d="M74.19,-212.69C80.54,-229.5 92.69,-253.8 112.6,-264.96 452.03,-455.21 3445.71,-327.48 3802.2,-311.53"/>
<polygon fill="black" stroke="black" points="3802.19,-315.04 3812.02,-311.09 3801.88,-308.05 3802.19,-315.04"/>
<text xml:space="preserve" text-anchor="middle" x="606.48" y="-367.59" font-family="Times New Roman,serif" font-size="14.00">&#39;0&#39;,&#39;1&#39;,&#39;2&#39;,&#39;3&#39;,&#39;4&#39;,&#39;5&#39;,&#39;6&#39;,&#39;7&#39;,&#39;8&#39;,&#39;9&#39;,&#39;A&#39;,&#39;B&#39;,&#39;C&#39;,&#39;D&#39;,&#39;E&#39;,&#39;F&#39;,&#39;G&#39;,&#39;H&#39;,&#39;I&#39;,&#39;J&#39;,&#39;K&#39;,&#39;L&#39;,&#39;M&#39;,&#39;N&#39;,&#39;O&#39;,&#39;P&#39;,&#39;Q&#39;,&#39;R&#39;,&#39;S&#39;,&#39;T&#39;,&#39;U&#39;,&#39;V&#39;,&#39;W&#39;,&#39;X&#39;,&#39;Y&#39;,&#39;Z&#39;,&#39;_&#39;,&#39;a&#39;,&#39;b&#39;,&#39;c&#39;,&#39;d&#39;,&#39;e&#39;,&#39;f&#39;,&#39;g&#39;,&#39;h&#39;,&#39;i&#39;,&#39;j&#39;,&#39;k&#39;,&#39;l&#39;,&#39;m&#39;,&#39;n&#39;,&#39;o&#39;,&#39;p&#39;,&#39;q&#39;,&#39;r&#39;,&#39;s&#39;,&#39;t&#39;,&#39;u&#39;,&#39;v&#39;,&#39;w&#39;,&#39;x&#39;,&#39;y&#39;,&#39;z&#39;</text>
</g>
<!-- q5 -->
<g id="node4" class="node">
<title>q5</title>
<ellipse fill="none" stroke="black" cx="6642.98" cy="-169.96" rx="20.13" ry="20.13"/>
<ellipse fill="none" stroke="black" cx="6642.98" cy="-169.96" rx="24.13" ry="24.13"/>
<text xml:space="preserve" text-anchor="middle" x="6642.98" y="-164.91" font-family="Times New Roman,serif" font-size="14.00">q5</text>
</g>
<!-- q0&#45;&gt;q5 -->
<g id="edge2" class="edge">
<title>q0&#45;&gt;q5</title>
<path fill="none" stroke="black" d="M88.52,-206.73C95.83,-210.44 104.35,-214.06 112.6,-215.96 548.18,-316.4 671.34,-222.18 1118.35,-223.96 1269.43,-224.56 6412.32,-266.29 6557.35,-223.96 6578.75,-217.72 6599.89,-204.23 6615.69,-192.3"/>
<polygon fill="black" stroke="black" points="6617.43,-195.38 6623.15,-186.46 6613.12,-189.87 6617.43,-195.38"/>
<text xml:space="preserve" text-anchor="middle" x="3837.85" y="-246.11" font-family="Times New Roman,serif" font-size="14.00">0x01,0x02,0x03,0x04,0x05,0x06,0x07,0x08,0x0E,0x0F,0x10,0x11,0x12,0x13,0x14,0x15,0x16,0x17,0x18,0x19,0x1A,0x1B,0x1C,0x1D,0x1E,0x1F,&#39;!&#39;,&#39;&quot;&#39;,&#39;#&#39;,&#39;$&#39;,&#39;%&#39;,&#39;&amp;&#39;,&#39;&#39;&#39;,&#39;(&#39;,&#39;)&#39;,&#39;,&#39;,&#39;.&#39;,&#39;/&#39;,&#39;:&#39;,&#39;;&#39;,&#39;&gt;&#39;,&#39;?&#39;,&#39;@&#39;,&#39;[&#39;,&#39;&#39;,&#39;]&#39;,&#39;^&#39;,&#39;`&#39;,&#39;{&#39;,&#39;|&#39;,&#39;}&#39;,&#39;~&#39;,0x7F,0x80,0x81,0x82,0x83,0x84,0x85,0x86,0x87,0x88,0x89,0x8A,0x8B,0x8C,0x8D,0x8E,0x8F,0x90,0x91,0x92,0x93,0x94,0x95,0x96,0x97,0x98,0x99,0x9A,0x9B,0x9C,0x9D,0x9E,0x9F,0xA0,0xA1,0xA2,0xA3,0xA4,0xA5,0xA6,0xA7,0xA8,0xA9,0xAA,0xAB,0xAC,0xAD,0xAE,0xAF,0xB0,0xB1,0xB2,0xB3,0xB4,0xB5,0xB6,0xB7,0xB8,0xB9,0xBA,0xBB,0xBC,0xBD,0xBE,0xBF,0xC0,0xC1,0xC2,0xC3,0xC4,0xC5,0xC6,0xC7,0xC8,0xC9,0xCA,0xCB,0xCC,0xCD,0xCE,0xCF,0xD0,0xD1,0xD2,0xD3,0xD4,0xD5,0xD6,0xD7,0xD8,0xD9,0xDA,0xDB,0xDC,0xDD,0xDE,0xDF,0xE0,0xE1,0xE2,0xE3,0xE4,0xE5,0xE6,0xE7,0xE8,0xE9,0xEA,0xEB,0xEC,0xED,0xEE,0xEF,0xF0,0xF1,0xF2,0xF3,0xF4,0xF5,0xF6,0xF7,0xF8,0xF9,0xFA,0xFB,0xFC,0xFD,0xFE,0xFF</text>
</g>
<!-- q1 -->
<g id="node5" class="node">
<title>q1</title>
<ellipse fill="none" stroke="black" cx="3837.85" cy="-194.96" rx="20.13" ry="20.13"/>
<text xml:space="preserve" text-anchor="middle" x="3837.85" y="-189.91" font-family="Times New Roman,serif" font-size="14.00">q1</text>
</g>
<!-- q0&#45;&gt;q1 -->
<g id="edge7" class="edge">
<title>q0&#45;&gt;q1</title>
<path fill="none" stroke="black" d="M94.93,-194.96C410.6,-194.96 3464.21,-194.96 3805.82,-194.96"/>
<polygon fill="black" stroke="black" points="3805.72,-198.46 3815.72,-194.96 3805.72,-191.46 3805.72,-198.46"/>
<text xml:space="preserve" text-anchor="middle" x="606.48" y="-198.16" font-family="Times New Roman,serif" font-size="14.00">&#39;&#45;&#39;</text>
</g>
<!-- q2 -->
<g id="node6" class="node">
<title>q2</title>
<ellipse fill="none" stroke="black" cx="3837.85" cy="-136.96" rx="20.13" ry="20.13"/>
<text xml:space="preserve" text-anchor="middle" x="3837.85" y="-131.91" font-family="Times New Roman,serif" font-size="14.00">q2</text>
</g>
<!-- q0&#45;&gt;q2 -->
<g id="edge5" class="edge">
<title>q0&#45;&gt;q2</title>
<path fill="none" stroke="black" d="M88.55,-183.48C95.87,-179.86 104.38,-176.32 112.6,-174.46 493.34,-88.1 3470.42,-131.31 3806.09,-136.48"/>
<polygon fill="black" stroke="black" points="3805.75,-139.97 3815.8,-136.63 3805.85,-132.97 3805.75,-139.97"/>
<text xml:space="preserve" text-anchor="middle" x="606.48" y="-177.66" font-family="Times New Roman,serif" font-size="14.00">&#39;+&#39;</text>
</g>
<!-- q3 -->
<g id="node7" class="node">
<title>q3</title>
<ellipse fill="none" stroke="black" cx="3837.85" cy="-78.96" rx="20.13" ry="20.13"/>
<text xml:space="preserve" text-anchor="middle" x="3837.85" y="-73.91" font-family="Times New Roman,serif" font-size="14.00">q3</text>
</g>
<!-- q0&#45;&gt;q3 -->
<g id="edge3" class="edge">
<title>q0&#45;&gt;q3</title>
<path fill="none" stroke="black" d="M71.72,-176.74C76.45,-155.44 87.67,-121.11 112.6,-105.46 443.44,102.19 3467.84,-58.55 3806.13,-77.24"/>
<polygon fill="black" stroke="black" points="3805.74,-80.72 3815.92,-77.78 3806.13,-73.74 3805.74,-80.72"/>
<text xml:space="preserve" text-anchor="middle" x="606.48" y="-108.66" font-family="Times New Roman,serif" font-size="14.00">&#39;*&#39;</text>
</g>
<!-- q4&#45;&gt;q4 -->
<g id="edge10" class="edge">
<title>q4&#45;&gt;q4</title>
<path fill="none" stroke="black" d="M3813.47,-310.47C3150.39,-324.67 3158.51,-352.09 3837.85,-352.09 4513.37,-352.09 4525.2,-324.98 3873.34,-310.71"/>
<polygon fill="black" stroke="black" points="3873.82,-307.22 3863.74,-310.5 3873.67,-314.22 3873.82,-307.22"/>
<text xml:space="preserve" text-anchor="middle" x="3837.85" y="-355.29" font-family="Times New Roman,serif" font-size="14.00">&#39;0&#39;,&#39;1&#39;,&#39;2&#39;,&#39;3&#39;,&#39;4&#39;,&#39;5&#39;,&#39;6&#39;,&#39;7&#39;,&#39;8&#39;,&#39;9&#39;,&#39;A&#39;,&#39;B&#39;,&#39;C&#39;,&#39;D&#39;,&#39;E&#39;,&#39;F&#39;,&#39;G&#39;,&#39;H&#39;,&#39;I&#39;,&#39;J&#39;,&#39;K&#39;,&#39;L&#39;,&#39;M&#39;,&#39;N&#39;,&#39;O&#39;,&#39;P&#39;,&#39;Q&#39;,&#39;R&#39;,&#39;S&#39;,&#39;T&#39;,&#39;U&#39;,&#39;V&#39;,&#39;W&#39;,&#39;X&#39;,&#39;Y&#39;,&#39;Z&#39;,&#39;_&#39;,&#39;a&#39;,&#39;b&#39;,&#39;c&#39;,&#39;d&#39;,&#39;e&#39;,&#39;f&#39;,&#39;g&#39;,&#39;h&#39;,&#39;i&#39;,&#39;j&#39;,&#39;k&#39;,&#39;l&#39;,&#39;m&#39;,&#39;n&#39;,&#39;o&#39;,&#39;p&#39;,&#39;q&#39;,&#39;r&#39;,&#39;s&#39;,&#39;t&#39;,&#39;u&#39;,&#39;v&#39;,&#39;w&#39;,&#39;x&#39;,&#39;y&#39;,&#39;z&#39;</text>
</g>
<!-- q1&#45;&gt;q5 -->
<g id="edge8" class="edge">
<title>q1&#45;&gt;q5</title>
<path fill="none" stroke="black" d="M3858.25,-194.79C4088.8,-192.73 6302.53,-172.99 6607.27,-170.27"/>
<polygon fill="black" stroke="black" points="6606.97,-173.77 6616.94,-170.18 6606.91,-166.77 6606.97,-173.77"/>
<text xml:space="preserve" text-anchor="middle" x="6588.1" y="-173.61" font-family="Times New Roman,serif" font-size="14.00">&#39;&#45;&#39;,&#39;&gt;&#39;</text>
</g>
<!-- q2&#45;&gt;q5 -->
<g id="edge6" class="edge">
<title>q2&#45;&gt;q5</title>
<path fill="none" stroke="black" d="M3858.36,-136.51C4090.35,-131.2 6317.88,-82.18 6600.85,-149.46 6604.42,-150.31 6608.04,-151.52 6611.56,-152.92"/>
<polygon fill="black" stroke="black" points="6609.84,-155.98 6620.38,-156.96 6612.75,-149.62 6609.84,-155.98"/>
<text xml:space="preserve" text-anchor="middle" x="6588.1" y="-152.66" font-family="Times New Roman,serif" font-size="14.00">&#39;+&#39;</text>
</g>
<!-- q3&#45;&gt;q5 -->
<g id="edge4" class="edge">
<title>q3&#45;&gt;q5</title>
<path fill="none" stroke="black" d="M3858.27,-76.59C4039.22,-55.05 5448.3,101.43 6557.35,-107.96 6577.67,-111.8 6583.77,-112.8 6600.85,-124.46 6607.98,-129.33 6614.73,-135.69 6620.61,-142.09"/>
<polygon fill="black" stroke="black" points="6617.89,-144.29 6627.07,-149.58 6623.19,-139.72 6617.89,-144.29"/>
<text xml:space="preserve" text-anchor="middle" x="6588.1" y="-127.66" font-family="Times New Roman,serif" font-size="14.00">&#39;*&#39;</text>
</g>
</g>
</svg>
