<?xml version="1.0" encoding="UTF-8" standalone="no"?>
<!DOCTYPE svg PUBLIC "-//W3C//DTD SVG 1.1//EN"
 "http://www.w3.org/Graphics/SVG/1.1/DTD/svg11.dtd">
<!-- Generated by graphviz version 14.0.5 (20251129.0259)
 -->
<!-- Title: FSM Pages: 1 -->
<svg width="1319pt" height="56pt"
 viewBox="0.00 0.00 1319.00 56.00" xmlns="http://www.w3.org/2000/svg" xmlns:xlink="http://www.w3.org/1999/xlink">
<g id="graph0" class="graph" transform="scale(1 1) rotate(0) translate(4 52.26)">
<title>FSM</title>
<polygon fill="white" stroke="none" points="-4,4 -4,-52.26 1314.65,-52.26 1314.65,4 -4,4"/>
<!-- start -->
<g id="node1" class="node">
<title>start</title>
<ellipse fill="black" stroke="black" cx="1.8" cy="-24.13" rx="1.8" ry="1.8"/>
</g>
<!-- q0 -->
<g id="node2" class="node">
<title>q0</title>
<ellipse fill="none" stroke="black" cx="67.6" cy="-24.13" rx="27" ry="18"/>
<text xml:space="preserve" text-anchor="middle" x="67.6" y="-19.08" font-family="Times New Roman,serif" font-size="14.00">q0</text>
</g>
<!-- start&#45;&gt;q0 -->
<g id="edge1" class="edge">
<title>start&#45;&gt;q0</title>
<path fill="none" stroke="black" d="M3.91,-24.13C7.21,-24.13 17.46,-24.13 28.73,-24.13"/>
<polygon fill="black" stroke="black" points="28.62,-27.63 38.62,-24.13 28.62,-20.63 28.62,-27.63"/>
</g>
<!-- q1 -->
<g id="node4" class="node">
<title>q1</title>
<ellipse fill="none" stroke="black" cx="161.98" cy="-24.13" rx="20.13" ry="20.13"/>
<text xml:space="preserve" text-anchor="middle" x="161.98" y="-19.08" font-family="Times New Roman,serif" font-size="14.00">q1</text>
</g>
<!-- q0&#45;&gt;q1 -->
<g id="edge3" class="edge">
<title>q0&#45;&gt;q1</title>
<path fill="none" stroke="black" d="M94.83,-24.13C105.83,-24.13 118.71,-24.13 130.17,-24.13"/>
<polygon fill="black" stroke="black" points="129.94,-27.63 139.94,-24.13 129.94,-20.63 129.94,-27.63"/>
<text xml:space="preserve" text-anchor="middle" x="118.22" y="-27.33" font-family="Times New Roman,serif" font-size="14.00">&#39;_&#39;</text>
</g>
<!-- q4 -->
<g id="node3" class="node">
<title>q4</title>
<ellipse fill="none" stroke="black" cx="1286.52" cy="-24.13" rx="20.13" ry="20.13"/>
<ellipse fill="none" stroke="black" cx="1286.52" cy="-24.13" rx="24.13" ry="24.13"/>
<text xml:space="preserve" text-anchor="middle" x="1286.52" y="-19.08" font-family="Times New Roman,serif" font-size="14.00">q4</text>
</g>
<!-- q2 -->
<g id="node5" class="node">
<title>q2</title>
<ellipse fill="none" stroke="black" cx="610.99" cy="-24.13" rx="20.13" ry="20.13"/>
<text xml:space="preserve" text-anchor="middle" x="610.99" y="-19.08" font-family="Times New Roman,serif" font-size="14.00">q2</text>
</g>
<!-- q1&#45;&gt;q2 -->
<g id="edge4" class="edge">
<title>q1&#45;&gt;q2</title>
<path fill="none" stroke="black" d="M182.48,-24.13C252.7,-24.13 493.1,-24.13 579.09,-24.13"/>
<polygon fill="black" stroke="black" points="578.88,-27.63 588.88,-24.13 578.88,-20.63 578.88,-27.63"/>
<text xml:space="preserve" text-anchor="middle" x="386.49" y="-27.33" font-family="Times New Roman,serif" font-size="14.00">&#39;a&#39;,&#39;b&#39;,&#39;c&#39;,&#39;d&#39;,&#39;e&#39;,&#39;f&#39;,&#39;g&#39;,&#39;h&#39;,&#39;i&#39;,&#39;j&#39;,&#39;k&#39;,&#39;l&#39;,&#39;m&#39;,&#39;n&#39;,&#39;o&#39;,&#39;p&#39;,&#39;q&#39;,&#39;r&#39;,&#39;s&#39;,&#39;t&#39;,&#39;u&#39;,&#39;v&#39;,&#39;w&#39;,&#39;x&#39;,&#39;y&#39;,&#39;z&#39;</text>
</g>
<!-- q3 -->
<g id="node6" class="node">
<title>q3</title>
<ellipse fill="none" stroke="black" cx="1060.01" cy="-24.13" rx="20.13" ry="20.13"/>
<text xml:space="preserve" text-anchor="middle" x="1060.01" y="-19.08" font-family="Times New Roman,serif" font-size="14.00">q3</text>
</g>
<!-- q2&#45;&gt;q3 -->
<g id="edge5" class="edge">
<title>q2&#45;&gt;q3</title>
<path fill="none" stroke="black" d="M631.49,-24.13C701.71,-24.13 942.11,-24.13 1028.11,-24.13"/>
<polygon fill="black" stroke="black" points="1027.89,-27.63 1037.89,-24.13 1027.89,-20.63 1027.89,-27.63"/>
<text xml:space="preserve" text-anchor="middle" x="835.5" y="-27.33" font-family="Times New Roman,serif" font-size="14.00">&#39;a&#39;,&#39;b&#39;,&#39;c&#39;,&#39;d&#39;,&#39;e&#39;,&#39;f&#39;,&#39;g&#39;,&#39;h&#39;,&#39;i&#39;,&#39;j&#39;,&#39;k&#39;,&#39;l&#39;,&#39;m&#39;,&#39;n&#39;,&#39;o&#39;,&#39;p&#39;,&#39;q&#39;,&#39;r&#39;,&#39;s&#39;,&#39;t&#39;,&#39;u&#39;,&#39;v&#39;,&#39;w&#39;,&#39;x&#39;,&#39;y&#39;,&#39;z&#39;</text>
</g>
<!-- q3&#45;&gt;q4 -->
<g id="edge2" class="edge">
<title>q3&#45;&gt;q4</title>
<path fill="none" stroke="black" d="M1080.54,-24.13C1118.6,-24.13 1203.14,-24.13 1250.91,-24.13"/>
<polygon fill="black" stroke="black" points="1250.7,-27.63 1260.7,-24.13 1250.7,-20.63 1250.7,-27.63"/>
<text xml:space="preserve" text-anchor="middle" x="1171.26" y="-27.33" font-family="Times New Roman,serif" font-size="14.00">&#39;0&#39;,&#39;1&#39;,&#39;2&#39;,&#39;3&#39;,&#39;4&#39;,&#39;5&#39;,&#39;6&#39;,&#39;7&#39;,&#39;8&#39;,&#39;9&#39;</text>
</g>
</g>
</svg>
